<mxfile host="app.diagrams.net" agent="Mozilla/5.0 (Windows NT 10.0; Win64; x64) AppleWebKit/537.36 (KHTML, like Gecko) Chrome/129.0.0.0 Safari/537.36" version="24.7.16">
  <diagram name="Страница — 1" id="QYKH8uogHdoRsofBsADW">
    <mxGraphModel dx="1134" dy="600" grid="1" gridSize="10" guides="1" tooltips="1" connect="1" arrows="1" fold="1" page="1" pageScale="1" pageWidth="827" pageHeight="1169" math="0" shadow="0">
      <root>
        <mxCell id="0" />
        <mxCell id="1" parent="0" />
        <mxCell id="Ks-ww01lqxmjzsgCV5TR-3" value="" style="endArrow=none;html=1;rounded=0;strokeWidth=3;" edge="1" parent="1">
          <mxGeometry width="50" height="50" relative="1" as="geometry">
            <mxPoint x="240" y="320" as="sourcePoint" />
            <mxPoint x="240" y="160" as="targetPoint" />
          </mxGeometry>
        </mxCell>
        <mxCell id="Ks-ww01lqxmjzsgCV5TR-4" value="" style="group" vertex="1" connectable="0" parent="1">
          <mxGeometry x="190" y="90" width="600" height="300" as="geometry" />
        </mxCell>
        <mxCell id="Ks-ww01lqxmjzsgCV5TR-1" value="" style="rounded=0;whiteSpace=wrap;html=1;fillColor=none;" vertex="1" parent="Ks-ww01lqxmjzsgCV5TR-4">
          <mxGeometry width="600" height="300" as="geometry" />
        </mxCell>
        <mxCell id="Ks-ww01lqxmjzsgCV5TR-2" value="" style="rounded=0;whiteSpace=wrap;html=1;fillColor=#E6E6E6;" vertex="1" parent="Ks-ww01lqxmjzsgCV5TR-4">
          <mxGeometry x="570.9677419354839" width="29.032258064516128" height="300" as="geometry" />
        </mxCell>
        <mxCell id="Ks-ww01lqxmjzsgCV5TR-5" value="" style="endArrow=none;html=1;rounded=0;strokeWidth=3;" edge="1" parent="1">
          <mxGeometry width="50" height="50" relative="1" as="geometry">
            <mxPoint x="270" y="320" as="sourcePoint" />
            <mxPoint x="270" y="160" as="targetPoint" />
          </mxGeometry>
        </mxCell>
        <mxCell id="Ks-ww01lqxmjzsgCV5TR-6" value="" style="endArrow=none;html=1;rounded=0;strokeWidth=3;" edge="1" parent="1">
          <mxGeometry width="50" height="50" relative="1" as="geometry">
            <mxPoint x="350" y="320" as="sourcePoint" />
            <mxPoint x="350" y="160" as="targetPoint" />
          </mxGeometry>
        </mxCell>
        <mxCell id="Ks-ww01lqxmjzsgCV5TR-7" value="" style="endArrow=none;html=1;rounded=0;strokeWidth=3;" edge="1" parent="1">
          <mxGeometry width="50" height="50" relative="1" as="geometry">
            <mxPoint x="270" y="160" as="sourcePoint" />
            <mxPoint x="350" y="160" as="targetPoint" />
          </mxGeometry>
        </mxCell>
        <mxCell id="Ks-ww01lqxmjzsgCV5TR-8" value="" style="endArrow=none;html=1;rounded=0;strokeWidth=3;" edge="1" parent="1">
          <mxGeometry width="50" height="50" relative="1" as="geometry">
            <mxPoint x="270" y="320" as="sourcePoint" />
            <mxPoint x="350" y="320" as="targetPoint" />
          </mxGeometry>
        </mxCell>
        <mxCell id="Ks-ww01lqxmjzsgCV5TR-9" value="" style="endArrow=none;html=1;rounded=0;strokeWidth=3;" edge="1" parent="1">
          <mxGeometry width="50" height="50" relative="1" as="geometry">
            <mxPoint x="270" y="240" as="sourcePoint" />
            <mxPoint x="350" y="240" as="targetPoint" />
          </mxGeometry>
        </mxCell>
        <mxCell id="Ks-ww01lqxmjzsgCV5TR-10" value="" style="endArrow=none;html=1;rounded=0;strokeWidth=3;" edge="1" parent="1">
          <mxGeometry width="50" height="50" relative="1" as="geometry">
            <mxPoint x="400" y="320" as="sourcePoint" />
            <mxPoint x="400" y="160" as="targetPoint" />
          </mxGeometry>
        </mxCell>
        <mxCell id="Ks-ww01lqxmjzsgCV5TR-11" value="" style="endArrow=none;html=1;rounded=0;strokeWidth=3;" edge="1" parent="1">
          <mxGeometry width="50" height="50" relative="1" as="geometry">
            <mxPoint x="480" y="320" as="sourcePoint" />
            <mxPoint x="480" y="160" as="targetPoint" />
          </mxGeometry>
        </mxCell>
        <mxCell id="Ks-ww01lqxmjzsgCV5TR-13" value="" style="endArrow=none;html=1;rounded=0;strokeWidth=3;" edge="1" parent="1">
          <mxGeometry width="50" height="50" relative="1" as="geometry">
            <mxPoint x="400" y="160" as="sourcePoint" />
            <mxPoint x="480" y="160" as="targetPoint" />
          </mxGeometry>
        </mxCell>
        <mxCell id="Ks-ww01lqxmjzsgCV5TR-14" value="" style="endArrow=none;html=1;rounded=0;strokeWidth=3;" edge="1" parent="1">
          <mxGeometry width="50" height="50" relative="1" as="geometry">
            <mxPoint x="510" y="159" as="sourcePoint" />
            <mxPoint x="590" y="159" as="targetPoint" />
          </mxGeometry>
        </mxCell>
        <mxCell id="Ks-ww01lqxmjzsgCV5TR-15" value="" style="endArrow=none;html=1;rounded=0;strokeWidth=3;" edge="1" parent="1">
          <mxGeometry width="50" height="50" relative="1" as="geometry">
            <mxPoint x="400" y="320" as="sourcePoint" />
            <mxPoint x="480" y="320" as="targetPoint" />
          </mxGeometry>
        </mxCell>
        <mxCell id="Ks-ww01lqxmjzsgCV5TR-16" value="" style="endArrow=none;html=1;rounded=0;strokeWidth=3;" edge="1" parent="1">
          <mxGeometry width="50" height="50" relative="1" as="geometry">
            <mxPoint x="510" y="319" as="sourcePoint" />
            <mxPoint x="590" y="319" as="targetPoint" />
          </mxGeometry>
        </mxCell>
        <mxCell id="Ks-ww01lqxmjzsgCV5TR-17" value="" style="endArrow=none;html=1;rounded=0;strokeWidth=3;" edge="1" parent="1">
          <mxGeometry width="50" height="50" relative="1" as="geometry">
            <mxPoint x="510" y="319" as="sourcePoint" />
            <mxPoint x="510" y="159" as="targetPoint" />
          </mxGeometry>
        </mxCell>
        <mxCell id="Ks-ww01lqxmjzsgCV5TR-18" value="" style="endArrow=none;html=1;rounded=0;strokeWidth=3;" edge="1" parent="1">
          <mxGeometry width="50" height="50" relative="1" as="geometry">
            <mxPoint x="590" y="319" as="sourcePoint" />
            <mxPoint x="590" y="159" as="targetPoint" />
          </mxGeometry>
        </mxCell>
        <mxCell id="Ks-ww01lqxmjzsgCV5TR-19" value="" style="endArrow=none;html=1;rounded=0;strokeWidth=3;" edge="1" parent="1">
          <mxGeometry width="50" height="50" relative="1" as="geometry">
            <mxPoint x="400" y="240" as="sourcePoint" />
            <mxPoint x="480" y="240" as="targetPoint" />
          </mxGeometry>
        </mxCell>
        <mxCell id="Ks-ww01lqxmjzsgCV5TR-20" value="" style="endArrow=none;html=1;rounded=0;strokeWidth=3;" edge="1" parent="1">
          <mxGeometry width="50" height="50" relative="1" as="geometry">
            <mxPoint x="510" y="239" as="sourcePoint" />
            <mxPoint x="590" y="239" as="targetPoint" />
          </mxGeometry>
        </mxCell>
        <mxCell id="Ks-ww01lqxmjzsgCV5TR-23" value="" style="group" vertex="1" connectable="0" parent="1">
          <mxGeometry x="370" y="220" width="10" height="50" as="geometry" />
        </mxCell>
        <mxCell id="Ks-ww01lqxmjzsgCV5TR-21" value="" style="ellipse;whiteSpace=wrap;html=1;aspect=fixed;fillColor=#212121;" vertex="1" parent="Ks-ww01lqxmjzsgCV5TR-23">
          <mxGeometry width="10" height="10" as="geometry" />
        </mxCell>
        <mxCell id="Ks-ww01lqxmjzsgCV5TR-22" value="" style="ellipse;whiteSpace=wrap;html=1;aspect=fixed;fillColor=#212121;" vertex="1" parent="Ks-ww01lqxmjzsgCV5TR-23">
          <mxGeometry y="40" width="10" height="10" as="geometry" />
        </mxCell>
        <mxCell id="Ks-ww01lqxmjzsgCV5TR-25" value="" style="ellipse;whiteSpace=wrap;html=1;aspect=fixed;fillColor=#212121;" vertex="1" parent="1">
          <mxGeometry x="610" y="310" width="10" height="10" as="geometry" />
        </mxCell>
        <mxCell id="Ks-ww01lqxmjzsgCV5TR-31" value="" style="endArrow=none;html=1;rounded=0;strokeWidth=3;" edge="1" parent="1">
          <mxGeometry width="50" height="50" relative="1" as="geometry">
            <mxPoint x="640" y="159" as="sourcePoint" />
            <mxPoint x="720" y="159" as="targetPoint" />
          </mxGeometry>
        </mxCell>
        <mxCell id="Ks-ww01lqxmjzsgCV5TR-32" value="" style="endArrow=none;html=1;rounded=0;strokeWidth=3;" edge="1" parent="1">
          <mxGeometry width="50" height="50" relative="1" as="geometry">
            <mxPoint x="640" y="319" as="sourcePoint" />
            <mxPoint x="720" y="319" as="targetPoint" />
          </mxGeometry>
        </mxCell>
        <mxCell id="Ks-ww01lqxmjzsgCV5TR-33" value="" style="endArrow=none;html=1;rounded=0;strokeWidth=3;" edge="1" parent="1">
          <mxGeometry width="50" height="50" relative="1" as="geometry">
            <mxPoint x="640" y="319" as="sourcePoint" />
            <mxPoint x="640" y="159" as="targetPoint" />
          </mxGeometry>
        </mxCell>
        <mxCell id="Ks-ww01lqxmjzsgCV5TR-34" value="" style="endArrow=none;html=1;rounded=0;strokeWidth=3;" edge="1" parent="1">
          <mxGeometry width="50" height="50" relative="1" as="geometry">
            <mxPoint x="720" y="319" as="sourcePoint" />
            <mxPoint x="720" y="159" as="targetPoint" />
          </mxGeometry>
        </mxCell>
        <mxCell id="Ks-ww01lqxmjzsgCV5TR-35" value="" style="endArrow=none;html=1;rounded=0;strokeWidth=3;" edge="1" parent="1">
          <mxGeometry width="50" height="50" relative="1" as="geometry">
            <mxPoint x="640" y="239" as="sourcePoint" />
            <mxPoint x="720" y="239" as="targetPoint" />
          </mxGeometry>
        </mxCell>
      </root>
    </mxGraphModel>
  </diagram>
</mxfile>
